<?xml version="1.0" standalone="no"?>
<!DOCTYPE svg PUBLIC "-//W3C//DTD SVG 20010904//EN"
 "http://www.w3.org/TR/2001/REC-SVG-20010904/DTD/svg10.dtd">
<svg version="1.0" xmlns="http://www.w3.org/2000/svg"
 width="1200.000000pt" height="1200.000000pt" viewBox="0 0 1200.000000 1200.000000"
 preserveAspectRatio="xMidYMid meet">
<metadata>
Created by potrace 1.14, written by Peter Selinger 2001-2017
</metadata>
<g transform="translate(0.000000,1200.000000) scale(0.100000,-0.100000)"
fill="#000000" stroke="none">
<path d="M5968 11915 c-2 -1 -93 -5 -203 -9 -110 -3 -211 -8 -225 -10 -14 -2
-63 -7 -110 -11 -84 -6 -125 -11 -185 -20 -16 -3 -55 -7 -85 -11 -30 -3 -58
-8 -61 -10 -3 -2 -33 -6 -65 -10 -32 -3 -62 -8 -65 -10 -4 -2 -24 -6 -45 -9
-125 -19 -482 -106 -664 -162 -47 -15 -89 -28 -95 -29 -70 -18 -424 -154 -543
-210 -41 -19 -76 -34 -78 -34 -6 0 -310 -152 -354 -177 -19 -11 -62 -35 -95
-53 -149 -83 -464 -287 -591 -385 -32 -25 -72 -55 -89 -67 -46 -36 -179 -142
-185 -148 -3 -3 -34 -30 -70 -60 -140 -120 -403 -375 -525 -511 -118 -131
-210 -239 -234 -273 -8 -12 -18 -23 -21 -26 -19 -16 -188 -247 -275 -375 -145
-215 -253 -400 -375 -640 -106 -209 -151 -305 -200 -430 -4 -11 -18 -45 -30
-75 -64 -157 -187 -533 -215 -660 -2 -8 -13 -53 -25 -100 -12 -47 -23 -92 -25
-100 -41 -195 -59 -292 -70 -365 -3 -23 -7 -50 -9 -61 -2 -12 -7 -45 -11 -74
-4 -29 -8 -61 -10 -70 -2 -9 -6 -50 -10 -91 -4 -41 -8 -87 -11 -104 -27 -210
-26 -904 1 -1135 1 -14 6 -56 9 -95 4 -38 9 -77 11 -85 2 -8 6 -40 10 -71 3
-31 7 -66 10 -77 2 -11 6 -36 9 -56 15 -95 37 -216 47 -261 28 -127 60 -263
69 -295 5 -19 24 -84 41 -145 58 -207 167 -517 244 -690 14 -33 38 -87 53
-120 62 -140 241 -481 312 -595 6 -8 29 -46 53 -85 23 -38 80 -126 127 -194
47 -68 92 -133 100 -146 27 -39 164 -220 175 -230 6 -5 29 -32 50 -60 22 -27
42 -52 45 -55 3 -3 20 -23 39 -45 128 -151 370 -399 529 -543 409 -371 902
-703 1393 -940 107 -51 163 -76 354 -157 79 -34 435 -160 480 -170 5 -1 17 -4
25 -8 22 -8 230 -65 260 -71 14 -3 52 -12 86 -20 34 -8 72 -17 85 -20 13 -2
58 -11 99 -19 165 -34 344 -62 520 -82 30 -3 71 -8 90 -10 236 -26 963 -26
1096 -1 12 2 54 7 95 10 41 4 121 14 179 22 58 8 121 17 140 20 48 7 73 12
313 60 10 2 26 5 35 8 9 3 28 7 42 9 40 7 228 57 320 85 47 14 90 27 95 28 26
5 272 91 375 131 205 80 587 256 615 284 5 5 17 9 26 9 10 0 19 4 21 8 2 5 41
29 88 55 47 26 101 57 122 70 20 12 58 35 85 51 91 55 318 209 418 284 249
188 429 345 660 576 202 203 268 275 414 456 55 69 104 130 109 135 37 46 187
258 249 353 235 358 461 805 601 1187 52 142 125 370 150 465 11 41 23 82 26
90 3 8 8 27 11 43 3 15 7 39 10 55 3 15 8 33 11 41 6 17 40 172 48 216 29 167
56 331 62 380 4 33 8 67 9 75 2 8 6 49 10 90 4 41 9 91 11 110 24 254 24 784
-1 1025 -1 17 -6 66 -10 110 -4 44 -9 89 -11 100 -3 11 -7 40 -9 65 -3 25 -7
60 -10 78 -3 17 -7 44 -9 60 -21 137 -79 426 -111 547 -42 158 -68 253 -80
285 -8 19 -23 67 -35 105 -30 99 -104 299 -162 440 -49 119 -254 538 -305 625
-14 25 -33 57 -42 72 -100 171 -225 361 -355 538 -50 69 -214 275 -241 304 -5
6 -23 27 -39 46 -40 50 -218 241 -302 324 -322 321 -603 547 -997 804 -62 40
-122 78 -134 85 -12 7 -52 30 -90 51 -187 109 -448 240 -638 321 -95 41 -361
143 -390 150 -5 1 -17 5 -25 8 -124 50 -542 161 -765 202 -99 19 -266 46 -335
55 -47 6 -98 12 -115 15 -32 4 -121 12 -220 21 -33 2 -145 7 -250 10 -104 3
-200 6 -212 8 -13 2 -24 2 -25 1z"/>
</g>
</svg>
